<svg width="20" height="20" viewBox="0 0 20 20" fill="none" xmlns="http://www.w3.org/2000/svg">
<path d="M5.78341 4.16668C5.78319 4.6087 5.60738 5.03254 5.29466 5.34494C4.98195 5.65735 4.55793 5.83273 4.11591 5.83251C3.67388 5.83229 3.25004 5.65648 2.93764 5.34377C2.62524 5.03105 2.44985 4.60704 2.45007 4.16501C2.45029 3.72298 2.6261 3.29915 2.93882 2.98674C3.25153 2.67434 3.67555 2.49896 4.11757 2.49918C4.5596 2.4994 4.98344 2.6752 5.29584 2.98792C5.60825 3.30064 5.78363 3.72465 5.78341 4.16668ZM5.83341 7.06668H2.50007V17.5H5.83341V7.06668ZM11.1001 7.06668H7.78341V17.5H11.0667V12.025C11.0667 8.97501 15.0417 8.69168 15.0417 12.025V17.5H18.3334V10.8917C18.3334 5.75001 12.4501 5.94168 11.0667 8.46668L11.1001 7.06668Z" fill="#747887"/>
</svg>
