<svg width="60" height="60" viewBox="0 0 60 60" fill="none" xmlns="http://www.w3.org/2000/svg">
<path d="M6.44988 47.525L6.39988 47.575C5.72488 46.1 5.29988 44.425 5.12488 42.575C5.29988 44.4 5.77488 46.05 6.44988 47.525Z" fill="#051655"/>
<path d="M22.5002 25.95C25.7863 25.95 28.4502 23.2861 28.4502 20C28.4502 16.7139 25.7863 14.05 22.5002 14.05C19.2141 14.05 16.5502 16.7139 16.5502 20C16.5502 23.2861 19.2141 25.95 22.5002 25.95Z" fill="#051655"/>
<path d="M40.4751 5H19.5251C10.4251 5 5.00012 10.425 5.00012 19.525V40.475C5.00012 43.2 5.47512 45.575 6.40012 47.575C8.55012 52.325 13.1501 55 19.5251 55H40.4751C49.5751 55 55.0001 49.575 55.0001 40.475V34.75V19.525C55.0001 10.425 49.5751 5 40.4751 5ZM50.9251 31.25C48.9751 29.575 45.8251 29.575 43.8751 31.25L33.4751 40.175C31.5251 41.85 28.3751 41.85 26.4251 40.175L25.5751 39.475C23.8001 37.925 20.9751 37.775 18.9751 39.125L9.62512 45.4C9.07512 44 8.75012 42.375 8.75012 40.475V19.525C8.75012 12.475 12.4751 8.75 19.5251 8.75H40.4751C47.5251 8.75 51.2501 12.475 51.2501 19.525V31.525L50.9251 31.25Z" fill="#051655"/>
</svg>
